<svg width="120" height="120" viewBox="0 0 120 120" fill="none" xmlns="http://www.w3.org/2000/svg">
  
  <!-- Shield -->
  <path d="M60 10L95 25V55C95 78 80 98 60 110C40 98 25 78 25 55V25L60 10Z"
        fill="#2563eb"/>

  <!-- Inner shield -->
  <path d="M60 20L85 32V55C85 73 73 89 60 98C47 89 35 73 35 55V32L60 20Z"
        fill="#1e40af"/>

  <!-- AI nodes -->
  <circle cx="60" cy="55" r="4" fill="white"/>
  <circle cx="45" cy="45" r="3" fill="white"/>
  <circle cx="75" cy="45" r="3" fill="white"/>
  <circle cx="50" cy="70" r="3" fill="white"/>
  <circle cx="70" cy="70" r="3" fill="white"/>

  <!-- connections -->
  <line x1="60" y1="55" x2="45" y2="45" stroke="white" stroke-width="1"/>
  <line x1="60" y1="55" x2="75" y2="45" stroke="white" stroke-width="1"/>
  <line x1="60" y1="55" x2="50" y2="70" stroke="white" stroke-width="1"/>
  <line x1="60" y1="55" x2="70" y2="70" stroke="white" stroke-width="1"/>

</svg>